<svg id="visual" viewBox="0 0 1600 600" width="1600" height="600" xmlns="http://www.w3.org/2000/svg" xmlns:xlink="http://www.w3.org/1999/xlink" version="1.1"><rect x="0" y="0" width="1600" height="600" fill="#002e51"></rect><path d="M0 424L38.2 427.7C76.3 431.3 152.7 438.7 228.8 442C305 445.3 381 444.7 457.2 444C533.3 443.3 609.7 442.7 685.8 443.3C762 444 838 446 914.2 437.2C990.3 428.3 1066.7 408.7 1142.8 394.7C1219 380.7 1295 372.3 1371.2 379C1447.3 385.7 1523.7 407.3 1561.8 418.2L1600 429L1600 601L1561.8 601C1523.7 601 1447.3 601 1371.2 601C1295 601 1219 601 1142.8 601C1066.7 601 990.3 601 914.2 601C838 601 762 601 685.8 601C609.7 601 533.3 601 457.2 601C381 601 305 601 228.8 601C152.7 601 76.3 601 38.2 601L0 601Z" fill="#2e314f"></path><path d="M0 462L38.2 456.2C76.3 450.3 152.7 438.7 228.8 430.7C305 422.7 381 418.3 457.2 418.7C533.3 419 609.7 424 685.8 433.8C762 443.7 838 458.3 914.2 455.3C990.3 452.3 1066.7 431.7 1142.8 422.3C1219 413 1295 415 1371.2 422.3C1447.3 429.7 1523.7 442.3 1561.8 448.7L1600 455L1600 601L1561.8 601C1523.7 601 1447.3 601 1371.2 601C1295 601 1219 601 1142.8 601C1066.7 601 990.3 601 914.2 601C838 601 762 601 685.8 601C609.7 601 533.3 601 457.2 601C381 601 305 601 228.8 601C152.7 601 76.3 601 38.2 601L0 601Z" fill="#262c4d"></path><path d="M0 496L38.2 487.7C76.3 479.3 152.7 462.7 228.8 460.3C305 458 381 470 457.2 478.7C533.3 487.3 609.7 492.7 685.8 496.8C762 501 838 504 914.2 501.5C990.3 499 1066.7 491 1142.8 491C1219 491 1295 499 1371.2 498.3C1447.3 497.7 1523.7 488.3 1561.8 483.7L1600 479L1600 601L1561.8 601C1523.7 601 1447.3 601 1371.2 601C1295 601 1219 601 1142.8 601C1066.7 601 990.3 601 914.2 601C838 601 762 601 685.8 601C609.7 601 533.3 601 457.2 601C381 601 305 601 228.8 601C152.7 601 76.3 601 38.2 601L0 601Z" fill="#1d274c"></path><path d="M0 530L38.2 529.5C76.3 529 152.7 528 228.8 527.3C305 526.7 381 526.3 457.2 519.7C533.3 513 609.7 500 685.8 495.2C762 490.3 838 493.7 914.2 501.7C990.3 509.7 1066.7 522.3 1142.8 521C1219 519.7 1295 504.3 1371.2 503.3C1447.3 502.3 1523.7 515.7 1561.8 522.3L1600 529L1600 601L1561.8 601C1523.7 601 1447.3 601 1371.2 601C1295 601 1219 601 1142.8 601C1066.7 601 990.3 601 914.2 601C838 601 762 601 685.8 601C609.7 601 533.3 601 457.2 601C381 601 305 601 228.8 601C152.7 601 76.3 601 38.2 601L0 601Z" fill="#11224b"></path><path d="M0 558L38.2 557.8C76.3 557.7 152.7 557.3 228.8 552.5C305 547.7 381 538.3 457.2 533.2C533.3 528 609.7 527 685.8 530.2C762 533.3 838 540.7 914.2 547.7C990.3 554.7 1066.7 561.3 1142.8 560.5C1219 559.7 1295 551.3 1371.2 544.7C1447.3 538 1523.7 533 1561.8 530.5L1600 528L1600 601L1561.8 601C1523.7 601 1447.3 601 1371.2 601C1295 601 1219 601 1142.8 601C1066.7 601 990.3 601 914.2 601C838 601 762 601 685.8 601C609.7 601 533.3 601 457.2 601C381 601 305 601 228.8 601C152.7 601 76.3 601 38.2 601L0 601Z" fill="#001e4a"></path></svg>