<svg id="visual" viewBox="0 0 1600 600" width="1600" height="600" xmlns="http://www.w3.org/2000/svg" xmlns:xlink="http://www.w3.org/1999/xlink" version="1.1"><rect x="0" y="0" width="1600" height="600" fill="#002e51"></rect><path d="M0 350L38.2 365.8C76.3 381.7 152.7 413.3 228.8 422.2C305 431 381 417 457.2 404.7C533.3 392.3 609.7 381.7 685.8 384.3C762 387 838 403 914.2 414.5C990.3 426 1066.7 433 1142.8 435C1219 437 1295 434 1371.2 420.2C1447.3 406.3 1523.7 381.7 1561.8 369.3L1600 357L1600 601L1561.8 601C1523.7 601 1447.3 601 1371.2 601C1295 601 1219 601 1142.8 601C1066.7 601 990.3 601 914.2 601C838 601 762 601 685.8 601C609.7 601 533.3 601 457.2 601C381 601 305 601 228.8 601C152.7 601 76.3 601 38.2 601L0 601Z" fill="#2e314f"></path><path d="M0 435L38.2 430.8C76.3 426.7 152.7 418.3 228.8 425.5C305 432.7 381 455.3 457.2 455.7C533.3 456 609.7 434 685.8 420.2C762 406.3 838 400.7 914.2 399.8C990.3 399 1066.7 403 1142.8 411.5C1219 420 1295 433 1371.2 437C1447.3 441 1523.7 436 1561.8 433.5L1600 431L1600 601L1561.8 601C1523.7 601 1447.3 601 1371.2 601C1295 601 1219 601 1142.8 601C1066.7 601 990.3 601 914.2 601C838 601 762 601 685.8 601C609.7 601 533.3 601 457.2 601C381 601 305 601 228.8 601C152.7 601 76.3 601 38.2 601L0 601Z" fill="#262c4d"></path><path d="M0 504L38.2 495C76.3 486 152.7 468 228.8 464C305 460 381 470 457.2 473.5C533.3 477 609.7 474 685.8 476.8C762 479.7 838 488.3 914.2 488.2C990.3 488 1066.7 479 1142.8 469.2C1219 459.3 1295 448.7 1371.2 445.2C1447.3 441.7 1523.7 445.3 1561.8 447.2L1600 449L1600 601L1561.8 601C1523.7 601 1447.3 601 1371.2 601C1295 601 1219 601 1142.8 601C1066.7 601 990.3 601 914.2 601C838 601 762 601 685.8 601C609.7 601 533.3 601 457.2 601C381 601 305 601 228.8 601C152.7 601 76.3 601 38.2 601L0 601Z" fill="#1d274c"></path><path d="M0 517L38.2 511.2C76.3 505.3 152.7 493.7 228.8 491.7C305 489.7 381 497.3 457.2 507.5C533.3 517.7 609.7 530.3 685.8 527.2C762 524 838 505 914.2 502.7C990.3 500.3 1066.7 514.7 1142.8 522C1219 529.3 1295 529.7 1371.2 530.5C1447.3 531.3 1523.7 532.7 1561.8 533.3L1600 534L1600 601L1561.8 601C1523.7 601 1447.3 601 1371.2 601C1295 601 1219 601 1142.8 601C1066.7 601 990.3 601 914.2 601C838 601 762 601 685.8 601C609.7 601 533.3 601 457.2 601C381 601 305 601 228.8 601C152.7 601 76.3 601 38.2 601L0 601Z" fill="#11224b"></path><path d="M0 562L38.2 555.8C76.3 549.7 152.7 537.3 228.8 536.3C305 535.3 381 545.7 457.2 549.5C533.3 553.3 609.7 550.7 685.8 546.3C762 542 838 536 914.2 533.3C990.3 530.7 1066.7 531.3 1142.8 534.7C1219 538 1295 544 1371.2 547.8C1447.3 551.7 1523.7 553.3 1561.8 554.2L1600 555L1600 601L1561.8 601C1523.7 601 1447.3 601 1371.2 601C1295 601 1219 601 1142.8 601C1066.7 601 990.3 601 914.2 601C838 601 762 601 685.8 601C609.7 601 533.3 601 457.2 601C381 601 305 601 228.8 601C152.7 601 76.3 601 38.2 601L0 601Z" fill="#001e4a"></path></svg>