<svg id="visual" viewBox="0 0 1600 600" width="1600" height="600" xmlns="http://www.w3.org/2000/svg" xmlns:xlink="http://www.w3.org/1999/xlink" version="1.1"><rect x="0" y="0" width="1600" height="600" fill="#002e51"></rect><path d="M0 414L38.2 412.8C76.3 411.7 152.7 409.3 228.8 402.2C305 395 381 383 457.2 373.3C533.3 363.7 609.7 356.3 685.8 358C762 359.7 838 370.3 914.2 381.2C990.3 392 1066.7 403 1142.8 411C1219 419 1295 424 1371.2 420.7C1447.3 417.3 1523.7 405.7 1561.8 399.8L1600 394L1600 601L1561.8 601C1523.7 601 1447.3 601 1371.2 601C1295 601 1219 601 1142.8 601C1066.7 601 990.3 601 914.2 601C838 601 762 601 685.8 601C609.7 601 533.3 601 457.2 601C381 601 305 601 228.8 601C152.7 601 76.3 601 38.2 601L0 601Z" fill="#2e314f"></path><path d="M0 470L38.2 458.2C76.3 446.3 152.7 422.7 228.8 416.2C305 409.7 381 420.3 457.2 422.3C533.3 424.3 609.7 417.7 685.8 419C762 420.3 838 429.7 914.2 438.7C990.3 447.7 1066.7 456.3 1142.8 460.2C1219 464 1295 463 1371.2 455.8C1447.3 448.7 1523.7 435.3 1561.8 428.7L1600 422L1600 601L1561.8 601C1523.7 601 1447.3 601 1371.2 601C1295 601 1219 601 1142.8 601C1066.7 601 990.3 601 914.2 601C838 601 762 601 685.8 601C609.7 601 533.3 601 457.2 601C381 601 305 601 228.8 601C152.7 601 76.3 601 38.2 601L0 601Z" fill="#262c4d"></path><path d="M0 500L38.2 495.5C76.3 491 152.7 482 228.8 480.3C305 478.7 381 484.3 457.2 486.2C533.3 488 609.7 486 685.8 480C762 474 838 464 914.2 461.2C990.3 458.3 1066.7 462.7 1142.8 467.5C1219 472.3 1295 477.7 1371.2 482C1447.3 486.3 1523.7 489.7 1561.8 491.3L1600 493L1600 601L1561.8 601C1523.7 601 1447.3 601 1371.2 601C1295 601 1219 601 1142.8 601C1066.7 601 990.3 601 914.2 601C838 601 762 601 685.8 601C609.7 601 533.3 601 457.2 601C381 601 305 601 228.8 601C152.7 601 76.3 601 38.2 601L0 601Z" fill="#1d274c"></path><path d="M0 535L38.2 532.7C76.3 530.3 152.7 525.7 228.8 526.8C305 528 381 535 457.2 538.5C533.3 542 609.7 542 685.8 534.8C762 527.7 838 513.3 914.2 510.5C990.3 507.7 1066.7 516.3 1142.8 518.8C1219 521.3 1295 517.7 1371.2 510.5C1447.3 503.3 1523.7 492.7 1561.8 487.3L1600 482L1600 601L1561.8 601C1523.7 601 1447.3 601 1371.2 601C1295 601 1219 601 1142.8 601C1066.7 601 990.3 601 914.2 601C838 601 762 601 685.8 601C609.7 601 533.3 601 457.2 601C381 601 305 601 228.8 601C152.7 601 76.3 601 38.2 601L0 601Z" fill="#11224b"></path><path d="M0 568L38.2 560.8C76.3 553.7 152.7 539.3 228.8 538.7C305 538 381 551 457.2 554.3C533.3 557.7 609.7 551.3 685.8 545.8C762 540.3 838 535.7 914.2 533.8C990.3 532 1066.7 533 1142.8 537C1219 541 1295 548 1371.2 546.5C1447.3 545 1523.7 535 1561.8 530L1600 525L1600 601L1561.8 601C1523.7 601 1447.3 601 1371.2 601C1295 601 1219 601 1142.8 601C1066.7 601 990.3 601 914.2 601C838 601 762 601 685.8 601C609.7 601 533.3 601 457.2 601C381 601 305 601 228.8 601C152.7 601 76.3 601 38.2 601L0 601Z" fill="#001e4a"></path></svg>